<svg xmlns="http://www.w3.org/2000/svg" xmlns:xlink="http://www.w3.org/1999/xlink" viewBox="0 0 257 257"><defs><linearGradient id="Degradado_sin_nombre" x1="63.59" y1="-2575.99" x2="123.37" y2="-2575.99" gradientTransform="matrix(1, 0, 0, -1, 0, -2445.81)" gradientUnits="userSpaceOnUse"><stop offset="0" stop-color="#fff"/><stop offset="1" stop-color="#1e1e1c"/></linearGradient></defs><g id="Capa_2" data-name="Capa 2"><g id="Capa_2-2" data-name="Capa 2"><rect x="0.5" y="0.5" width="256" height="256" style="fill:#2e2d2c;stroke:#1d1d1b;stroke-miterlimit:10"/></g><g id="Capa_1-2" data-name="Capa 1"><g style="opacity:0.2"><path d="M194.49,191.46a123.19,123.19,0,0,0,0-123.21" style="fill:none;stroke:#54b68d;stroke-linecap:round;stroke-miterlimit:133.3333282470703;stroke-width:20px"/><path d="M155.35,173.34a87,87,0,0,0,0-87" style="fill:none;stroke:#54b68d;stroke-linecap:round;stroke-miterlimit:133.3333282470703;stroke-width:20px"/></g><g id="Capa_2-3" data-name="Capa 2"><g id="Capa_1-2-2" data-name="Capa 1-2"><path d="M84.41,145.86a7.59,7.59,0,0,1,0,15.17v31.36a38.93,38.93,0,0,0,31.22-62.21A39,39,0,0,1,84.41,145.86Z" style="fill:#ea5153"/><path d="M115.63,130.18A38.93,38.93,0,0,0,84.41,68V99.32a7.59,7.59,0,0,1,0,15.18A39,39,0,0,1,115.63,130.18Z" style="fill:#54b68d"/><path d="M115.63,130.18A39,39,0,0,0,84.41,114.5H63.59v31.36H84.42A39,39,0,0,0,115.63,130.18Z" style="fill:url(#Degradado_sin_nombre)"/><path d="M115.63,130.18A39,39,0,0,0,84.41,114.5H63.59v31.36H84.42A39,39,0,0,0,115.63,130.18Z" style="fill:#fdc804"/></g></g></g></g></svg>